PathFileType	4	(X/Y/Z)	./resultDataOpenSim/trcMotMarkerGrf/sub09/qtm-02-05.trc
DataRate	CameraRate	NumFrames	NumMarkers	Units	OrigDataRate	OrigDataStartFrame	OrigNumFrames
250.000000	250.000000	14	24	m	250.000000	236	470
Frame#	Time	L.Toe.Tip			R.Toe.Tip			L.Ankle.Lat			R.Ankle.Lat			L.Ankle.Med			R.Ankle.Med			L.Heel			R.Heel			L.Knee.Lat			R.Knee.Lat			L.Knee.Med			R.Knee.Med			L.Thigh.Upper			R.Thigh.Upper			L.ASIS			R.ASIS			V.Sacral			L.Acromium			R.Acromium			C7			L.Elbow			R.Elbow			L.Wrist.Lat			R.Wrist.Lat
		X1	Y1	Z1	X2	Y2	Z2	X3	Y3	Z3	X4	Y4	Z4	X5	Y5	Z5	X6	Y6	Z6	X7	Y7	Z7	X8	Y8	Z8	X9	Y9	Z9	X10	Y10	Z10	X11	Y11	Z11	X12	Y12	Z12	X13	Y13	Z13	X14	Y14	Z14	X15	Y15	Z15	X16	Y16	Z16	X17	Y17	Z17	X18	Y18	Z18	X19	Y19	Z19	X20	Y20	Z20	X21	Y21	Z21	X22	Y22	Z22	X23	Y23	Z23	X24	Y24	Z24

236	0.94	0.12022671	0.014375453	0.026155199	0.22097212	0.11255406	0.15807275	-0.026699653	0.052171973	-0.015047344	0.083625047	0.16661886	0.1735652	-0.0057010222	0.071258361	0.081179566	0.11488996	0.1917538	0.081117424	-0.10024291	0.022698161	0.029057298	0.01552363	0.15761126	0.11764024	0.071776528	0.45681296	-0.067035488	0.30771592	0.55173599	0.21313887	0.070541976	0.45764164	0.058664296	0.30584721	0.53858539	0.086538344	0.072750122	0.88106718	-0.11784185	0.087353912	0.89325169	0.25224216	0.16288678	0.96501207	-0.060721901	0.16128905	0.97615237	0.17781536	0.0014333642	1.028609	0.062158735	0.17246256	1.4216158	-0.10294548	0.1453554	1.4304955	0.22483256	0.095860479	1.4773976	0.057390179	0.027327032	1.0781232	-0.1805245	-0.0065758952	1.0978328	0.30369029	0.2360929	0.90238775	-0.18170428	0.12810189	0.86016148	0.32928994
237	0.944	0.12022205	0.014279294	0.026293626	0.24111248	0.11195008	0.15801315	-0.026862609	0.052586073	-0.014618071	0.10209601	0.16232568	0.17323837	-0.0055689784	0.071562731	0.081485976	0.13285607	0.18835988	0.080914974	-0.10022428	0.023221675	0.029641664	0.034690049	0.15165996	0.11742497	0.072766201	0.45692682	-0.066888772	0.31659862	0.55383119	0.21320171	0.071718374	0.45778065	0.058790201	0.31445646	0.5404499	0.086801461	0.078121997	0.88100683	-0.11771975	0.09331743	0.89329984	0.25255111	0.16865962	0.96477499	-0.060625798	0.16717544	0.97619054	0.17802743	0.0067454421	1.0286276	0.061834465	0.17846095	1.4215318	-0.10281468	0.15103762	1.4303751	0.22497124	0.10163892	1.4773545	0.05745447	0.03453234	1.0773162	-0.18079622	-0.0012425933	1.0978186	0.30339347	0.24537515	0.90393515	-0.18070111	0.13294316	0.85994773	0.32995365
238	0.948	0.12019243	0.014180001	0.026452601	0.26119658	0.1113964	0.1579821	-0.026949541	0.052995789	-0.014269892	0.12066242	0.15810202	0.17300395	-0.0053597753	0.071935049	0.081717608	0.15092274	0.18500501	0.080751223	-0.10022183	0.023832723	0.030109858	0.05398965	0.14577379	0.11707418	0.073729588	0.45705362	-0.066731538	0.32528984	0.55570901	0.21325379	0.073013246	0.45794417	0.058839459	0.32281423	0.54215812	0.087204143	0.08339996	0.88088682	-0.11772353	0.099287001	0.89326696	0.25285599	0.1744857	0.96451689	-0.060532266	0.17307444	0.97615699	0.17823465	0.011915628	1.0286687	0.061061918	0.18448464	1.4213997	-0.10269884	0.15673916	1.4301913	0.22511441	0.10745294	1.4772024	0.057519298	0.041767055	1.0764468	-0.18103288	0.0042082561	1.097723	0.30309645	0.25462151	0.90542395	-0.17971379	0.13782837	0.85966682	0.33058586
239	0.952	0.12018033	0.014106767	0.026561341	0.2811515	0.11091098	0.15799631	-0.02695877	0.053383357	-0.013979152	0.13934223	0.15393514	0.1728457	-0.0050677611	0.072353372	0.081886434	0.16907852	0.18170089	0.080634412	-0.10025096	0.024510657	0.030534371	0.07334787	0.13998432	0.11666025	0.074699656	0.45720849	-0.066548705	0.33381025	0.55738281	0.21333183	0.074557573	0.45807642	0.058789222	0.33100896	0.54370733	0.087656683	0.088618227	0.88072992	-0.11780106	0.10525877	0.8931559	0.2531526	0.18039065	0.96424045	-0.060440384	0.17898351	0.97605398	0.17843597	0.017204051	1.0286306	0.060274954	0.1905438	1.4212248	-0.10260034	0.16246272	1.4299511	0.22526244	0.11330912	1.4769459	0.057591419	0.04903426	1.0755268	-0.18123834	0.0098266762	1.0975523	0.30280373	0.26383233	0.90685612	-0.17874185	0.14275739	0.85932115	0.33119378
240	0.956	0.12019508	0.014062572	0.026612505	0.3010106	0.11049628	0.15801754	-0.026999418	0.05377251	-0.013615027	0.15816924	0.14982784	0.17270562	-0.0047315822	0.072768152	0.082056283	0.18730553	0.17846526	0.080558331	-0.10028505	0.025199756	0.030989011	0.092759053	0.13432957	0.11626852	0.075662653	0.45737939	-0.066349816	0.34217805	0.55887325	0.21346997	0.076131082	0.45816826	0.058766798	0.33916472	0.54508553	0.088036218	0.093897295	0.88059843	-0.11778685	0.11123003	0.89297281	0.25344275	0.18635832	0.96394002	-0.060353084	0.18490211	0.97588437	0.17863207	0.02276566	1.0284617	0.059882765	0.19662725	1.4210065	-0.10249987	0.16821163	1.4296643	0.22541524	0.11919523	1.4766374	0.057690204	0.056332473	1.0745658	-0.18141627	0.015561209	1.0973166	0.30251929	0.27300823	0.90822872	-0.17778148	0.14772334	0.85890872	0.33177571
241	0.96	0.12022786	0.014035156	0.026633898	0.32083443	0.11015537	0.15800673	-0.027102677	0.054183851	-0.013157494	0.17721101	0.1457805	0.17252233	-0.0043762414	0.073144878	0.082272498	0.20558536	0.17531369	0.080506455	-0.10029026	0.025862812	0.031468105	0.11225184	0.12883132	0.11592532	0.076594234	0.45755204	-0.066153022	0.35041599	0.56020951	0.21368034	0.077413364	0.45826912	0.058895077	0.34734849	0.54628573	0.088290573	0.099352727	0.88055192	-0.11752989	0.11720368	0.89272591	0.25373199	0.19235093	0.96360767	-0.060271691	0.19083314	0.97565121	0.17882565	0.028561542	1.0281791	0.059901108	0.20269938	1.4207409	-0.10237267	0.17398407	1.4293372	0.22556952	0.1251003	1.4763166	0.057819019	0.063658949	1.0735697	-0.18156595	0.021295162	1.0970279	0.30224337	0.28215277	0.90953773	-0.17682638	0.15272226	0.85842855	0.33232715
242	0.964	0.12027201	0.014014225	0.026648815	0.34063926	0.1098899	0.15796834	-0.027171183	0.054605835	-0.012743523	0.19652615	0.14178568	0.17227149	-0.0040027665	0.073487638	0.082537708	0.22390949	0.1722525	0.0804663	-0.10026071	0.026498396	0.031953271	0.13185088	0.12348786	0.11561023	0.077489081	0.45773094	-0.065971548	0.35854628	0.5614284	0.21394496	0.078391031	0.45843109	0.059133647	0.35553329	0.54731636	0.08846936	0.1049804	0.88058722	-0.11704157	0.12318593	0.89242395	0.25402419	0.19833959	0.96323834	-0.060190886	0.19677984	0.97535765	0.17901919	0.034476576	1.0278154	0.06012225	0.20872569	1.4204269	-0.10221392	0.17977638	1.4289705	0.2257242	0.13101597	1.475982	0.057951982	0.071014633	1.0725387	-0.18168126	0.026984592	1.0966915	0.3019783	0.29126733	0.91078261	-0.17587092	0.15775657	0.85788477	0.33284951
243	0.968	0.12032337	0.013994828	0.026665239	0.36042715	0.10969325	0.15793103	-0.027143968	0.055019716	-0.012456623	0.21600525	0.1378816	0.17198859	-0.0036132271	0.07382218	0.082829336	0.24227899	0.1692851	0.080437968	-0.10020796	0.027122944	0.032451021	0.15157729	0.11828315	0.11527813	0.078352965	0.45792954	-0.065813579	0.36655237	0.56254567	0.21422745	0.079347502	0.45866904	0.059336429	0.36364037	0.54818599	0.088666933	0.11067209	0.8806282	-0.11647421	0.12917764	0.89207281	0.25431967	0.20431889	0.96282887	-0.060103709	0.20274315	0.97500529	0.17921255	0.040431643	1.0273963	0.060378221	0.21471542	1.4200703	-0.10204082	0.18558497	1.4285651	0.22588747	0.13692558	1.4756121	0.058029573	0.078405043	1.0714684	-0.18175582	0.032692573	1.0963057	0.30173225	0.30034697	0.91196636	-0.17491181	0.16282848	0.85728403	0.33334907
244	0.972	0.12037207	0.013974546	0.026679086	0.38020927	0.10957153	0.15792167	-0.027084888	0.055428097	-0.012218031	0.23532745	0.13417285	0.17176104	-0.0032262897	0.074171054	0.083122983	0.26069945	0.16642026	0.080425015	-0.10013845	0.027753708	0.03298035	0.1714513	0.11320883	0.11488034	0.079193036	0.45815194	-0.065684844	0.37435608	0.5635321	0.21450104	0.080509203	0.45896606	0.059421385	0.37159395	0.54888665	0.088956466	0.11631957	0.88057012	-0.11599645	0.1351704	0.89167313	0.25461723	0.21030061	0.96237587	-0.060008411	0.20872325	0.9745935	0.17940457	0.046402361	1.0269377	0.060610893	0.22072039	1.4196791	-0.10187376	0.19140507	1.4281234	0.22607105	0.14280609	1.475195	0.057971489	0.085835216	1.0703573	-0.1817899	0.038486237	1.0958714	0.30151096	0.30938689	0.91309015	-0.17394757	0.16793603	0.85663093	0.33382996
245	0.976	0.12040576	0.013953733	0.026680111	0.39998008	0.10956053	0.15796522	-0.027098632	0.055854721	-0.011898111	0.25426744	0.13073897	0.17166079	-0.0028628704	0.074545379	0.083405217	0.27917807	0.1636726	0.080419982	-0.10005335	0.028402062	0.033549115	0.19145409	0.10828499	0.11441734	0.080015722	0.45839285	-0.065591527	0.38186811	0.56433471	0.21476423	0.081859158	0.4592883	0.05942319	0.37935575	0.54940128	0.089359852	0.12188181	0.88033951	-0.11571048	0.14115576	0.89122514	0.25491797	0.21629583	0.96187618	-0.059908117	0.21472048	0.97412309	0.17959578	0.052392173	1.0264409	0.06082733	0.22677149	1.4192575	-0.10172352	0.19723743	1.4276453	0.22627438	0.14865229	1.4747375	0.057756554	0.093297679	1.0692088	-0.18178905	0.044376259	1.0953977	0.30131671	0.31838888	0.9141511	-0.1729782	0.17307737	0.85592957	0.33429373
246	0.98	0.12042071	0.013937014	0.026658852	0.41971239	0.10970048	0.15808301	-0.027220929	0.056321441	-0.011452003	0.27299617	0.12754755	0.17166741	-0.0025270257	0.074944258	0.083670714	0.29771858	0.16105473	0.080405172	-0.09995857	0.029070758	0.034142034	0.21152548	0.10355154	0.11394492	0.08082399	0.45865243	-0.065537816	0.3890966	0.56492739	0.21502374	0.083228021	0.45959436	0.059419265	0.38696882	0.54972297	0.089830428	0.12738047	0.87993928	-0.11561505	0.14713429	0.89073454	0.25522707	0.22230615	0.96133002	-0.059805418	0.22073368	0.97359951	0.17978963	0.058407745	1.0258979	0.061049155	0.23284595	1.4188032	-0.10158786	0.20309111	1.4271276	0.22648427	0.15449717	1.4742457	0.057501518	0.10075849	1.0680261	-0.18174661	0.050344104	1.0948912	0.30115627	0.32735481	0.91514649	-0.17200612	0.17825466	0.8551879	0.33474493
247	0.984	0.12042238	0.013931222	0.026611879	0.43938215	0.11000157	0.15828506	-0.027394329	0.056825676	-0.010940129	0.29186034	0.12451171	0.17168961	-0.0022040583	0.075357324	0.083912726	0.31631702	0.15857258	0.080366127	-0.099865203	0.02976031	0.034741261	0.23162942	0.099033977	0.11349727	0.081622556	0.45894147	-0.065517751	0.39616292	0.56533352	0.21528798	0.084418211	0.45985995	0.059474243	0.39458658	0.54986489	0.090250095	0.13285867	0.87944566	-0.11560705	0.15310874	0.89020729	0.25554876	0.22832734	0.96074125	-0.059699878	0.22675903	0.97302897	0.17999142	0.064454236	1.0253005	0.061286778	0.23891216	1.4183106	-0.10144942	0.20897317	1.4265683	0.22669175	0.16038404	1.4737078	0.057376388	0.1081616	1.0668089	-0.18162712	0.056382084	1.0943449	0.30103274	0.33627966	0.91607678	-0.17103448	0.18347387	0.85441523	0.33519158
248	0.988	0.12041752	0.013939051	0.026543887	0.45897755	0.11044995	0.15857227	-0.027538132	0.057347959	-0.01045018	0.31095645	0.12160424	0.17166041	-0.0018548385	0.075777687	0.084118309	0.33496181	0.15623644	0.080302091	-0.099781085	0.030472992	0.03536222	0.25175992	0.094734706	0.11306463	0.082428721	0.4592684	-0.065518483	0.40312374	0.56557983	0.2155988	0.085339828	0.46010815	0.05959716	0.40242203	0.54985751	0.090470753	0.13834235	0.87894005	-0.11557301	0.159073	0.8896393	0.25587988	0.23435571	0.96011202	-0.059590069	0.23279467	0.97241393	0.18020477	0.070535345	1.0246454	0.061534784	0.2449657	1.4177781	-0.10128437	0.21487928	1.4259692	0.22689832	0.16632141	1.4731035	0.057438317	0.11548079	1.0655611	-0.18139302	0.062516428	1.0937466	0.3009444	0.34515925	0.91694396	-0.17006212	0.18873915	0.8536114	0.33563843
249	0.992	0.12041186	0.013952188	0.026465551	0.47848762	0.11103525	0.15894298	-0.027624906	0.057882775	-0.010019366	0.33012827	0.11886774	0.17158128	-0.0014114243	0.076212698	0.084260112	0.35363411	0.15407086	0.080224829	-0.099706524	0.031206126	0.036060395	0.27189333	0.090654671	0.11263398	0.083268593	0.45962831	-0.065535257	0.40987031	0.56564785	0.21601085	0.086141553	0.4603909	0.059698385	0.41055327	0.54974736	0.090439937	0.14383087	0.87844659	-0.11548101	0.16501877	0.88901666	0.25621433	0.24039583	0.95943929	-0.059474114	0.23884755	0.9717531	0.18043041	0.076647889	1.0239379	0.061780147	0.25101497	1.4172098	-0.10108179	0.22079885	1.4253334	0.22710942	0.17228692	1.4724251	0.057617428	0.12279682	1.0643023	-0.1810774	0.068797036	1.0930938	0.30090762	0.35399809	0.91774884	-0.16908465	0.19404846	0.85276533	0.33608427
